<?xml version="1.0" encoding="utf-8" standalone="no"?>
<!DOCTYPE svg PUBLIC "-//W3C//DTD SVG 1.1//EN"
  "http://www.w3.org/Graphics/SVG/1.1/DTD/svg11.dtd">
<svg xmlns:xlink="http://www.w3.org/1999/xlink" width="453.71875pt" height="273.085938pt" viewBox="0 0 453.71875 273.085938" xmlns="http://www.w3.org/2000/svg" version="1.1">
 <metadata>
  <rdf:RDF xmlns:dc="http://purl.org/dc/elements/1.1/" xmlns:cc="http://creativecommons.org/ns#" xmlns:rdf="http://www.w3.org/1999/02/22-rdf-syntax-ns#">
   <cc:Work>
    <dc:type rdf:resource="http://purl.org/dc/dcmitype/StillImage"/>
    <dc:date>2026-08-17T17:39:36.471238</dc:date>
    <dc:format>image/svg+xml</dc:format>
    <dc:creator>
     <cc:Agent>
      <dc:title>Matplotlib v3.10.0, https://matplotlib.org/</dc:title>
     </cc:Agent>
    </dc:creator>
   </cc:Work>
  </rdf:RDF>
 </metadata>
 <defs>
  <style type="text/css">*{stroke-linejoin: round; stroke-linecap: butt}</style>
 </defs>
 <g id="figure_1">
  <g id="patch_1">
   <path d="M 0 273.085938 
L 453.71875 273.085938 
L 453.71875 0 
L 0 0 
z
" style="fill: #ffffff"/>
  </g>
  <g id="axes_1">
   <g id="patch_2">
    <path d="M 68.88875 236.242188 
L 446.51875 236.242188 
L 446.51875 19.722187 
L 68.88875 19.722187 
z
" style="fill: #ffffff"/>
   </g>
   <g id="patch_3">
    <path d="M 68.88875 226.400369 
L 83.770326 226.400369 
L 83.770326 222.055933 
L 68.88875 222.055933 
z
" clip-path="url(#p09a130c2d6)" style="fill: #5f6a72; opacity: 0.85"/>
   </g>
   <g id="patch_4">
    <path d="M 68.88875 209.691001 
L 310.714355 209.691001 
L 310.714355 205.346565 
L 68.88875 205.346565 
z
" clip-path="url(#p09a130c2d6)" style="fill: #5f6a72; opacity: 0.85"/>
   </g>
   <g id="patch_5">
    <path d="M 68.88875 192.981632 
L 344.197901 192.981632 
L 344.197901 188.637196 
L 68.88875 188.637196 
z
" clip-path="url(#p09a130c2d6)" style="fill: #5f6a72; opacity: 0.85"/>
   </g>
   <g id="patch_6">
    <path d="M 68.88875 176.272263 
L 388.842628 176.272263 
L 388.842628 171.927827 
L 68.88875 171.927827 
z
" clip-path="url(#p09a130c2d6)" style="fill: #5f6a72; opacity: 0.85"/>
   </g>
   <g id="patch_7">
    <path d="M 68.88875 159.562894 
L 221.424901 159.562894 
L 221.424901 155.218459 
L 68.88875 155.218459 
z
" clip-path="url(#p09a130c2d6)" style="fill: #5f6a72; opacity: 0.85"/>
   </g>
   <g id="patch_8">
    <path d="M 68.88875 142.853526 
L 139.576235 142.853526 
L 139.576235 138.50909 
L 68.88875 138.50909 
z
" clip-path="url(#p09a130c2d6)" style="fill: #5f6a72; opacity: 0.85"/>
   </g>
   <g id="patch_9">
    <path d="M 68.88875 126.144157 
L 221.424901 126.144157 
L 221.424901 121.799721 
L 68.88875 121.799721 
z
" clip-path="url(#p09a130c2d6)" style="fill: #5f6a72; opacity: 0.85"/>
   </g>
   <g id="patch_10">
    <path d="M 68.88875 109.434788 
L 169.339386 109.434788 
L 169.339386 105.090352 
L 68.88875 105.090352 
z
" clip-path="url(#p09a130c2d6)" style="fill: #5f6a72; opacity: 0.85"/>
   </g>
   <g id="patch_11">
    <path d="M 68.88875 92.725419 
L 102.372295 92.725419 
L 102.372295 88.380984 
L 68.88875 88.380984 
z
" clip-path="url(#p09a130c2d6)" style="fill: #5f6a72; opacity: 0.85"/>
   </g>
   <g id="patch_12">
    <path d="M 68.88875 76.016051 
L 98.651901 76.016051 
L 98.651901 71.671615 
L 68.88875 71.671615 
z
" clip-path="url(#p09a130c2d6)" style="fill: #5f6a72; opacity: 0.85"/>
   </g>
   <g id="patch_13">
    <path d="M 68.88875 59.306682 
L 87.49072 59.306682 
L 87.49072 54.962246 
L 68.88875 54.962246 
z
" clip-path="url(#p09a130c2d6)" style="fill: #5f6a72; opacity: 0.85"/>
   </g>
   <g id="patch_14">
    <path d="M 68.88875 42.597313 
L 72.609144 42.597313 
L 72.609144 38.252877 
L 68.88875 38.252877 
z
" clip-path="url(#p09a130c2d6)" style="fill: #5f6a72; opacity: 0.85"/>
   </g>
   <g id="patch_15">
    <path d="M 68.88875 222.055933 
L 428.536369 222.055933 
L 428.536369 217.711498 
L 68.88875 217.711498 
z
" clip-path="url(#p09a130c2d6)" style="fill: #7f1734; opacity: 0.85"/>
   </g>
   <g id="patch_16">
    <path d="M 68.88875 205.346565 
L 246.17983 205.346565 
L 246.17983 201.002129 
L 68.88875 201.002129 
z
" clip-path="url(#p09a130c2d6)" style="fill: #7f1734; opacity: 0.85"/>
   </g>
   <g id="patch_17">
    <path d="M 68.88875 188.637196 
L 205.656154 188.637196 
L 205.656154 184.29276 
L 68.88875 184.29276 
z
" clip-path="url(#p09a130c2d6)" style="fill: #7f1734; opacity: 0.85"/>
   </g>
   <g id="patch_18">
    <path d="M 68.88875 171.927827 
L 200.590695 171.927827 
L 200.590695 167.583391 
L 68.88875 167.583391 
z
" clip-path="url(#p09a130c2d6)" style="fill: #7f1734; opacity: 0.85"/>
   </g>
   <g id="patch_19">
    <path d="M 68.88875 155.218459 
L 190.459776 155.218459 
L 190.459776 150.874023 
L 68.88875 150.874023 
z
" clip-path="url(#p09a130c2d6)" style="fill: #7f1734; opacity: 0.85"/>
   </g>
   <g id="patch_20">
    <path d="M 68.88875 138.50909 
L 160.06702 138.50909 
L 160.06702 134.164654 
L 68.88875 134.164654 
z
" clip-path="url(#p09a130c2d6)" style="fill: #7f1734; opacity: 0.85"/>
   </g>
   <g id="patch_21">
    <path d="M 68.88875 121.799721 
L 139.805182 121.799721 
L 139.805182 117.455285 
L 68.88875 117.455285 
z
" clip-path="url(#p09a130c2d6)" style="fill: #7f1734; opacity: 0.85"/>
   </g>
   <g id="patch_22">
    <path d="M 68.88875 105.090352 
L 129.674263 105.090352 
L 129.674263 100.745916 
L 68.88875 100.745916 
z
" clip-path="url(#p09a130c2d6)" style="fill: #7f1734; opacity: 0.85"/>
   </g>
   <g id="patch_23">
    <path d="M 68.88875 88.380984 
L 114.477885 88.380984 
L 114.477885 84.036548 
L 68.88875 84.036548 
z
" clip-path="url(#p09a130c2d6)" style="fill: #7f1734; opacity: 0.85"/>
   </g>
   <g id="patch_24">
    <path d="M 68.88875 71.671615 
L 109.412425 71.671615 
L 109.412425 67.327179 
L 68.88875 67.327179 
z
" clip-path="url(#p09a130c2d6)" style="fill: #7f1734; opacity: 0.85"/>
   </g>
   <g id="patch_25">
    <path d="M 68.88875 54.962246 
L 104.346966 54.962246 
L 104.346966 50.61781 
L 68.88875 50.61781 
z
" clip-path="url(#p09a130c2d6)" style="fill: #7f1734; opacity: 0.85"/>
   </g>
   <g id="patch_26">
    <path d="M 68.88875 38.252877 
L 68.88875 38.252877 
L 68.88875 33.908442 
L 68.88875 33.908442 
z
" clip-path="url(#p09a130c2d6)" style="fill: #7f1734; opacity: 0.85"/>
   </g>
   <g id="patch_27">
    <path d="M 68.88875 217.711498 
L 80.543789 217.711498 
L 80.543789 213.367062 
L 68.88875 213.367062 
z
" clip-path="url(#p09a130c2d6)" style="fill: #557c99; opacity: 0.85"/>
   </g>
   <g id="patch_28">
    <path d="M 68.88875 201.002129 
L 249.54186 201.002129 
L 249.54186 196.657693 
L 68.88875 196.657693 
z
" clip-path="url(#p09a130c2d6)" style="fill: #557c99; opacity: 0.85"/>
   </g>
   <g id="patch_29">
    <path d="M 68.88875 184.29276 
L 377.747294 184.29276 
L 377.747294 179.948324 
L 68.88875 179.948324 
z
" clip-path="url(#p09a130c2d6)" style="fill: #557c99; opacity: 0.85"/>
   </g>
   <g id="patch_30">
    <path d="M 68.88875 167.583391 
L 395.229853 167.583391 
L 395.229853 163.238956 
L 68.88875 163.238956 
z
" clip-path="url(#p09a130c2d6)" style="fill: #557c99; opacity: 0.85"/>
   </g>
   <g id="patch_31">
    <path d="M 68.88875 150.874023 
L 162.129065 150.874023 
L 162.129065 146.529587 
L 68.88875 146.529587 
z
" clip-path="url(#p09a130c2d6)" style="fill: #557c99; opacity: 0.85"/>
   </g>
   <g id="patch_32">
    <path d="M 68.88875 134.164654 
L 156.301545 134.164654 
L 156.301545 129.820218 
L 68.88875 129.820218 
z
" clip-path="url(#p09a130c2d6)" style="fill: #557c99; opacity: 0.85"/>
   </g>
   <g id="patch_33">
    <path d="M 68.88875 117.455285 
L 284.506979 117.455285 
L 284.506979 113.110849 
L 68.88875 113.110849 
z
" clip-path="url(#p09a130c2d6)" style="fill: #557c99; opacity: 0.85"/>
   </g>
   <g id="patch_34">
    <path d="M 68.88875 100.745916 
L 150.474026 100.745916 
L 150.474026 96.401481 
L 68.88875 96.401481 
z
" clip-path="url(#p09a130c2d6)" style="fill: #557c99; opacity: 0.85"/>
   </g>
   <g id="patch_35">
    <path d="M 68.88875 84.036548 
L 115.508908 84.036548 
L 115.508908 79.692112 
L 68.88875 79.692112 
z
" clip-path="url(#p09a130c2d6)" style="fill: #557c99; opacity: 0.85"/>
   </g>
   <g id="patch_36">
    <path d="M 68.88875 67.327179 
L 103.853868 67.327179 
L 103.853868 62.982743 
L 68.88875 62.982743 
z
" clip-path="url(#p09a130c2d6)" style="fill: #557c99; opacity: 0.85"/>
   </g>
   <g id="patch_37">
    <path d="M 68.88875 50.61781 
L 86.371309 50.61781 
L 86.371309 46.273374 
L 68.88875 46.273374 
z
" clip-path="url(#p09a130c2d6)" style="fill: #557c99; opacity: 0.85"/>
   </g>
   <g id="patch_38">
    <path d="M 68.88875 33.908442 
L 74.71627 33.908442 
L 74.71627 29.564006 
L 68.88875 29.564006 
z
" clip-path="url(#p09a130c2d6)" style="fill: #557c99; opacity: 0.85"/>
   </g>
   <g id="matplotlib.axis_1">
    <g id="xtick_1">
     <g id="line2d_1">
      <defs>
       <path id="mb57ef3b984" d="M 0 0 
L 0 3.5 
" style="stroke: #8a8a86; stroke-width: 0.8"/>
      </defs>
      <g>
       <use xlink:href="#mb57ef3b984" x="68.88875" y="236.242188" style="fill: #8a8a86; stroke: #8a8a86; stroke-width: 0.8"/>
      </g>
     </g>
     <g id="text_1">
      <text style="font-size: 10px; font-family: 'Liberation Sans'; text-anchor: middle; fill: #8a8a86" x="68.88875" y="250.489062" transform="rotate(-0 68.88875 250.489062)">0</text>
     </g>
    </g>
    <g id="xtick_2">
     <g id="line2d_2">
      <g>
       <use xlink:href="#mb57ef3b984" x="134.739723" y="236.242188" style="fill: #8a8a86; stroke: #8a8a86; stroke-width: 0.8"/>
      </g>
     </g>
     <g id="text_2">
      <text style="font-size: 10px; font-family: 'Liberation Sans'; text-anchor: middle; fill: #8a8a86" x="134.739723" y="250.489062" transform="rotate(-0 134.739723 250.489062)">10</text>
     </g>
    </g>
    <g id="xtick_3">
     <g id="line2d_3">
      <g>
       <use xlink:href="#mb57ef3b984" x="200.590695" y="236.242188" style="fill: #8a8a86; stroke: #8a8a86; stroke-width: 0.8"/>
      </g>
     </g>
     <g id="text_3">
      <text style="font-size: 10px; font-family: 'Liberation Sans'; text-anchor: middle; fill: #8a8a86" x="200.590695" y="250.489062" transform="rotate(-0 200.590695 250.489062)">20</text>
     </g>
    </g>
    <g id="xtick_4">
     <g id="line2d_4">
      <g>
       <use xlink:href="#mb57ef3b984" x="266.441668" y="236.242188" style="fill: #8a8a86; stroke: #8a8a86; stroke-width: 0.8"/>
      </g>
     </g>
     <g id="text_4">
      <text style="font-size: 10px; font-family: 'Liberation Sans'; text-anchor: middle; fill: #8a8a86" x="266.441668" y="250.489062" transform="rotate(-0 266.441668 250.489062)">30</text>
     </g>
    </g>
    <g id="xtick_5">
     <g id="line2d_5">
      <g>
       <use xlink:href="#mb57ef3b984" x="332.29264" y="236.242188" style="fill: #8a8a86; stroke: #8a8a86; stroke-width: 0.8"/>
      </g>
     </g>
     <g id="text_5">
      <text style="font-size: 10px; font-family: 'Liberation Sans'; text-anchor: middle; fill: #8a8a86" x="332.29264" y="250.489062" transform="rotate(-0 332.29264 250.489062)">40</text>
     </g>
    </g>
    <g id="xtick_6">
     <g id="line2d_6">
      <g>
       <use xlink:href="#mb57ef3b984" x="398.143613" y="236.242188" style="fill: #8a8a86; stroke: #8a8a86; stroke-width: 0.8"/>
      </g>
     </g>
     <g id="text_6">
      <text style="font-size: 10px; font-family: 'Liberation Sans'; text-anchor: middle; fill: #8a8a86" x="398.143613" y="250.489062" transform="rotate(-0 398.143613 250.489062)">50</text>
     </g>
    </g>
    <g id="text_7">
     <text style="font-size: 10px; font-family: 'Liberation Sans'; text-anchor: middle; fill: #c9c9c4" x="257.70375" y="263.810938" transform="rotate(-0 257.70375 263.810938)">% of ligands containing group</text>
    </g>
   </g>
   <g id="matplotlib.axis_2">
    <g id="ytick_1">
     <g id="line2d_7">
      <defs>
       <path id="m626e39dbb3" d="M 0 0 
L -3.5 0 
" style="stroke: #8a8a86; stroke-width: 0.8"/>
      </defs>
      <g>
       <use xlink:href="#m626e39dbb3" x="68.88875" y="219.883716" style="fill: #8a8a86; stroke: #8a8a86; stroke-width: 0.8"/>
      </g>
     </g>
     <g id="text_8">
      <text style="font-size: 8px; font-family: 'Liberation Sans'; text-anchor: end; fill: #8a8a86" x="61.88875" y="222.782466" transform="rotate(-0 61.88875 222.782466)">carboxylic_acid</text>
     </g>
    </g>
    <g id="ytick_2">
     <g id="line2d_8">
      <g>
       <use xlink:href="#m626e39dbb3" x="68.88875" y="203.174347" style="fill: #8a8a86; stroke: #8a8a86; stroke-width: 0.8"/>
      </g>
     </g>
     <g id="text_9">
      <text style="font-size: 8px; font-family: 'Liberation Sans'; text-anchor: end; fill: #8a8a86" x="61.88875" y="206.073097" transform="rotate(-0 61.88875 206.073097)">ether</text>
     </g>
    </g>
    <g id="ytick_3">
     <g id="line2d_9">
      <g>
       <use xlink:href="#m626e39dbb3" x="68.88875" y="186.464978" style="fill: #8a8a86; stroke: #8a8a86; stroke-width: 0.8"/>
      </g>
     </g>
     <g id="text_10">
      <text style="font-size: 8px; font-family: 'Liberation Sans'; text-anchor: end; fill: #8a8a86" x="61.88875" y="189.363728" transform="rotate(-0 61.88875 189.363728)">alkene</text>
     </g>
    </g>
    <g id="ytick_4">
     <g id="line2d_10">
      <g>
       <use xlink:href="#m626e39dbb3" x="68.88875" y="169.755609" style="fill: #8a8a86; stroke: #8a8a86; stroke-width: 0.8"/>
      </g>
     </g>
     <g id="text_11">
      <text style="font-size: 8px; font-family: 'Liberation Sans'; text-anchor: end; fill: #8a8a86" x="61.88875" y="172.654359" transform="rotate(-0 61.88875 172.654359)">aromatic_ring</text>
     </g>
    </g>
    <g id="ytick_5">
     <g id="line2d_11">
      <g>
       <use xlink:href="#m626e39dbb3" x="68.88875" y="153.046241" style="fill: #8a8a86; stroke: #8a8a86; stroke-width: 0.8"/>
      </g>
     </g>
     <g id="text_12">
      <text style="font-size: 8px; font-family: 'Liberation Sans'; text-anchor: end; fill: #8a8a86" x="61.88875" y="155.944991" transform="rotate(-0 61.88875 155.944991)">ester</text>
     </g>
    </g>
    <g id="ytick_6">
     <g id="line2d_12">
      <g>
       <use xlink:href="#m626e39dbb3" x="68.88875" y="136.336872" style="fill: #8a8a86; stroke: #8a8a86; stroke-width: 0.8"/>
      </g>
     </g>
     <g id="text_13">
      <text style="font-size: 8px; font-family: 'Liberation Sans'; text-anchor: end; fill: #8a8a86" x="61.88875" y="139.235622" transform="rotate(-0 61.88875 139.235622)">alcohol</text>
     </g>
    </g>
    <g id="ytick_7">
     <g id="line2d_13">
      <g>
       <use xlink:href="#m626e39dbb3" x="68.88875" y="119.627503" style="fill: #8a8a86; stroke: #8a8a86; stroke-width: 0.8"/>
      </g>
     </g>
     <g id="text_14">
      <text style="font-size: 8px; font-family: 'Liberation Sans'; text-anchor: end; fill: #8a8a86" x="61.88875" y="122.526253" transform="rotate(-0 61.88875 122.526253)">ketone</text>
     </g>
    </g>
    <g id="ytick_8">
     <g id="line2d_14">
      <g>
       <use xlink:href="#m626e39dbb3" x="68.88875" y="102.918134" style="fill: #8a8a86; stroke: #8a8a86; stroke-width: 0.8"/>
      </g>
     </g>
     <g id="text_15">
      <text style="font-size: 8px; font-family: 'Liberation Sans'; text-anchor: end; fill: #8a8a86" x="61.88875" y="105.816884" transform="rotate(-0 61.88875 105.816884)">aldehyde</text>
     </g>
    </g>
    <g id="ytick_9">
     <g id="line2d_15">
      <g>
       <use xlink:href="#m626e39dbb3" x="68.88875" y="86.208766" style="fill: #8a8a86; stroke: #8a8a86; stroke-width: 0.8"/>
      </g>
     </g>
     <g id="text_16">
      <text style="font-size: 8px; font-family: 'Liberation Sans'; text-anchor: end; fill: #8a8a86" x="61.88875" y="89.107516" transform="rotate(-0 61.88875 89.107516)">amine</text>
     </g>
    </g>
    <g id="ytick_10">
     <g id="line2d_16">
      <g>
       <use xlink:href="#m626e39dbb3" x="68.88875" y="69.499397" style="fill: #8a8a86; stroke: #8a8a86; stroke-width: 0.8"/>
      </g>
     </g>
     <g id="text_17">
      <text style="font-size: 8px; font-family: 'Liberation Sans'; text-anchor: end; fill: #8a8a86" x="61.88875" y="72.398147" transform="rotate(-0 61.88875 72.398147)">phenol</text>
     </g>
    </g>
    <g id="ytick_11">
     <g id="line2d_17">
      <g>
       <use xlink:href="#m626e39dbb3" x="68.88875" y="52.790028" style="fill: #8a8a86; stroke: #8a8a86; stroke-width: 0.8"/>
      </g>
     </g>
     <g id="text_18">
      <text style="font-size: 8px; font-family: 'Liberation Sans'; text-anchor: end; fill: #8a8a86" x="61.88875" y="55.688778" transform="rotate(-0 61.88875 55.688778)">amide</text>
     </g>
    </g>
    <g id="ytick_12">
     <g id="line2d_18">
      <g>
       <use xlink:href="#m626e39dbb3" x="68.88875" y="36.080659" style="fill: #8a8a86; stroke: #8a8a86; stroke-width: 0.8"/>
      </g>
     </g>
     <g id="text_19">
      <text style="font-size: 8px; font-family: 'Liberation Sans'; text-anchor: end; fill: #8a8a86" x="61.88875" y="38.979409" transform="rotate(-0 61.88875 38.979409)">nitrile</text>
     </g>
    </g>
   </g>
   <g id="patch_39">
    <path d="M 68.88875 236.242188 
L 68.88875 19.722187 
" style="fill: none; stroke: #c9c9c4; stroke-width: 0.8; stroke-linejoin: miter; stroke-linecap: square"/>
   </g>
   <g id="patch_40">
    <path d="M 68.88875 236.242188 
L 446.51875 236.242188 
" style="fill: none; stroke: #c9c9c4; stroke-width: 0.8; stroke-linejoin: miter; stroke-linecap: square"/>
   </g>
   <g id="text_20">
    <text style="font-size: 10px; font-family: 'Liberation Sans'; text-anchor: start; fill: #8a8a86" x="435.729321" y="222.469653" transform="rotate(-0 435.729321 222.469653)">*</text>
   </g>
   <g id="text_21">
    <text style="font-size: 10px; font-family: 'Liberation Sans'; text-anchor: start; fill: #8a8a86" x="435.729321" y="189.050916" transform="rotate(-0 435.729321 189.050916)">*</text>
   </g>
   <g id="text_22">
    <text style="font-size: 10px; font-family: 'Liberation Sans'; text-anchor: start; fill: #8a8a86" x="435.729321" y="172.341547" transform="rotate(-0 435.729321 172.341547)">*</text>
   </g>
   <g id="text_23">
    <text style="font-size: 10px; font-family: 'Liberation Sans'; text-anchor: start; fill: #8a8a86" x="435.729321" y="122.213441" transform="rotate(-0 435.729321 122.213441)">*</text>
   </g>
   <g id="text_24">
    <text style="font-size: 9px; font-family: 'Liberation Sans'; text-anchor: middle; fill: #8a8a86" x="257.70375" y="13.722187" transform="rotate(-0 257.70375 13.722187)">Functional groups by node  (* Fisher p&lt;0.05, class1 vs class2)</text>
   </g>
   <g id="legend_1">
    <g id="patch_41">
     <path d="M 390.012109 31.907344 
L 405.012109 31.907344 
L 405.012109 26.657344 
L 390.012109 26.657344 
z
" style="fill: #5f6a72; opacity: 0.85"/>
    </g>
    <g id="text_25">
     <text style="font-size: 7.5px; font-family: 'Liberation Sans'; text-anchor: start; fill: #8a8a86" x="411.012109" y="31.907344" transform="rotate(-0 411.012109 31.907344)">common</text>
    </g>
    <g id="patch_42">
     <path d="M 390.012109 42.64875 
L 405.012109 42.64875 
L 405.012109 37.39875 
L 390.012109 37.39875 
z
" style="fill: #7f1734; opacity: 0.85"/>
    </g>
    <g id="text_26">
     <text style="font-size: 7.5px; font-family: 'Liberation Sans'; text-anchor: start; fill: #8a8a86" x="411.012109" y="42.64875" transform="rotate(-0 411.012109 42.64875)">class1</text>
    </g>
    <g id="patch_43">
     <path d="M 390.012109 53.390156 
L 405.012109 53.390156 
L 405.012109 48.140156 
L 390.012109 48.140156 
z
" style="fill: #557c99; opacity: 0.85"/>
    </g>
    <g id="text_27">
     <text style="font-size: 7.5px; font-family: 'Liberation Sans'; text-anchor: start; fill: #8a8a86" x="411.012109" y="53.390156" transform="rotate(-0 411.012109 53.390156)">class2</text>
    </g>
   </g>
  </g>
 </g>
 <defs>
  <clipPath id="p09a130c2d6">
   <rect x="68.88875" y="19.722187" width="377.63" height="216.52"/>
  </clipPath>
 </defs>
</svg>
